# Blender 4.1.1
# www.blender.org
o Cube.011
v -10.430775 0.015419 -2.512879
v -10.430775 6.450343 -2.512879
v -10.430775 0.015419 -6.292501
v -10.430775 6.450343 -6.292501
v -10.135283 0.015419 -2.512879
v -10.135283 6.450343 -2.512879
v -10.135283 0.015419 -6.292501
v -10.135283 6.450343 -6.292501
v -10.430775 0.015419 -5.032627
v -10.430775 0.015419 -3.772753
v -10.430775 6.450343 -3.772753
v -10.430775 6.450343 -5.032627
v -10.135283 0.015419 -3.772753
v -10.135283 0.015419 -5.032627
v -10.135283 6.450343 -5.032627
v -10.135283 6.450343 -3.772753
v -10.430775 2.160394 -2.512879
v -10.430775 4.305368 -2.512879
v -10.430775 4.305368 -6.292501
v -10.430775 2.160394 -6.292501
v -10.135283 4.305368 -6.292501
v -10.135283 2.160394 -6.292501
v -10.135283 4.305368 -2.512879
v -10.135283 2.160394 -2.512879
v -10.136110 6.213789 -6.054566
v -10.136110 0.251972 -6.054566
v -10.136110 6.213789 -2.750815
v -10.136110 0.251972 -2.750815
v -10.429946 6.213789 -2.750815
v -10.429946 0.251972 -2.750815
v -10.429946 6.213789 -6.054566
v -10.429946 0.251972 -6.054566
vn -1.0000 -0.0013 0.0022
vn -0.0000 -0.0000 -1.0000
vn 1.0000 -0.0013 -0.0022
vn -0.0000 -0.0000 1.0000
vn -0.0000 -1.0000 -0.0000
vn -0.0000 1.0000 -0.0000
vn 1.0000 -0.0013 0.0022
vn 1.0000 -0.0035 -0.0000
vn -1.0000 -0.0013 -0.0022
vn -1.0000 -0.0035 -0.0000
vn -1.0000 0.0035 -0.0000
vn -1.0000 0.0013 -0.0022
vn -1.0000 -0.0000 -0.0035
vn 1.0000 0.0035 -0.0000
vn 1.0000 0.0013 0.0022
vn 1.0000 -0.0000 0.0035
vn 1.0000 0.0013 -0.0022
vn 1.0000 -0.0000 -0.0035
vn -1.0000 0.0013 0.0022
vn -1.0000 -0.0000 0.0035
vt 0.541667 0.166667
vt 0.625000 0.166667
vt 0.625000 0.250000
vt 0.541667 0.250000
vt 0.625000 0.500000
vt 0.541667 0.500000
vt 0.541667 0.666667
vt 0.625000 0.666667
vt 0.625000 0.750000
vt 0.541667 0.750000
vt 0.625000 1.000000
vt 0.541667 1.000000
vt 0.125000 0.666667
vt 0.375000 0.666667
vt 0.375000 0.750000
vt 0.125000 0.750000
vt 0.875000 0.666667
vt 0.875000 0.750000
vt 0.875000 0.500000
vt 0.875000 0.583333
vt 0.625000 0.583333
vt 0.125000 0.500000
vt 0.375000 0.500000
vt 0.375000 0.583333
vt 0.125000 0.583333
vt 0.541667 0.583333
vt 0.541667 0.000000
vt 0.625000 0.000000
vt 0.625000 0.083333
vt 0.541667 0.083333
vt 0.375000 0.083333
vt 0.458333 0.083333
vt 0.458333 0.166667
vt 0.375000 0.166667
vt 0.458333 0.666667
vt 0.458333 0.583333
vt 0.375000 0.000000
vt 0.458333 0.000000
vt 0.458333 0.500000
vt 0.458333 0.750000
vt 0.458333 1.000000
vt 0.375000 1.000000
vt 0.375000 0.250000
vt 0.458333 0.250000
s 0
f 31/1/1 12/2/1 4/3/1 19/4/1
f 19/4/2 4/3/2 8/5/2 21/6/2
f 27/7/3 16/8/3 6/9/3 23/10/3
f 23/10/4 6/9/4 2/11/4 18/12/4
f 10/13/5 13/14/5 5/15/5 1/16/5
f 16/8/6 11/17/6 2/18/6 6/9/6
f 8/5/6 4/19/6 12/20/6 15/21/6
f 15/21/6 12/20/6 11/17/6 16/8/6
f 3/22/5 7/23/5 14/24/5 9/25/5
f 9/25/5 14/24/5 13/14/5 10/13/5
f 21/6/7 8/5/7 15/21/7 25/26/7
f 25/26/8 15/21/8 16/8/8 27/7/8
f 18/27/9 2/28/9 11/29/9 29/30/9
f 29/30/10 11/29/10 12/2/10 31/1/10
f 10/31/11 30/32/11 32/33/11 9/34/11
f 32/33/6 30/32/6 28/35/6 26/36/6
f 1/37/12 17/38/12 30/32/12 10/31/12
f 17/38/13 18/27/13 29/30/13 30/32/13
f 14/24/14 26/36/14 28/35/14 13/14/14
f 30/32/2 29/30/2 27/7/2 28/35/2
f 7/23/15 22/39/15 26/36/15 14/24/15
f 22/39/16 21/6/16 25/26/16 26/36/16
f 5/15/4 24/40/4 17/41/4 1/42/4
f 24/40/4 23/10/4 18/12/4 17/41/4
f 13/14/17 28/35/17 24/40/17 5/15/17
f 28/35/18 27/7/18 23/10/18 24/40/18
f 3/43/2 20/44/2 22/39/2 7/23/2
f 20/44/2 19/4/2 21/6/2 22/39/2
f 9/34/19 32/33/19 20/44/19 3/43/19
f 32/33/20 31/1/20 19/4/20 20/44/20
f 29/30/5 31/1/5 25/26/5 27/7/5
f 31/1/4 32/33/4 26/36/4 25/26/4
