# Blender 4.1.1
# www.blender.org
o Cube.013
v 10.000000 0.000000 -10.000000
v 10.000000 0.000000 10.000000
v -10.000000 0.000000 -10.000000
v -10.000000 0.000000 10.000000
v -7.914507 0.000000 -10.000000
v -7.914507 0.000000 10.000000
v -10.000000 0.000000 0.791897
v 10.000000 0.000000 0.791897
v -7.914508 0.000000 0.791897
v 10.000000 0.000000 -6.322888
v -10.000000 0.000000 -6.322888
v -7.914507 0.000000 -6.322888
v -10.000000 0.000000 -2.508463
v -7.914507 0.000000 -2.508463
v 10.000000 0.000000 -2.508464
v -10.711741 0.000000 0.791897
v -10.711741 0.000000 -6.322888
v -10.711741 0.000000 -2.508463
vn -0.0000 1.0000 -0.0000
vt 0.444584 0.864945
vt 0.000000 0.864944
vt 0.000000 -0.000000
vt 0.444584 0.000000
vt 0.444584 0.965636
vt 0.000000 0.965636
vt 0.603931 0.965636
vt 0.603931 0.864945
vt 0.603931 0.000000
vt 0.965636 0.864945
vt 0.788098 0.864945
vt 0.788098 0.000000
vt 0.965636 0.000000
vt 0.965636 0.965636
vt 0.788098 0.965636
vt 0.603931 1.000000
vt 0.444584 1.000000
vt 0.788098 1.000000
s 0
f 9/1/1 6/2/1 2/3/1 8/4/1
f 7/5/1 4/6/1 6/2/1 9/1/1
f 13/7/1 7/5/1 9/1/1 14/8/1
f 14/8/1 9/1/1 8/4/1 15/9/1
f 5/10/1 12/11/1 10/12/1 1/13/1
f 3/14/1 11/15/1 12/11/1 5/10/1
f 12/11/1 14/8/1 15/9/1 10/12/1
f 11/15/1 13/7/1 14/8/1 12/11/1
f 7/5/1 13/7/1 18/16/1 16/17/1
f 13/7/1 11/15/1 17/18/1 18/16/1
