# Blender 4.1.1
# www.blender.org
o Cube.010
v -7.134950 1.594789 -8.519713
v -7.113119 1.853485 -8.518173
v -7.102117 2.114113 -8.560851
v -7.107437 2.364337 -8.645870
v -7.123856 2.592282 -8.769054
v -7.386210 1.593950 -8.454365
v -7.374444 1.863767 -8.450670
v -7.367474 2.133693 -8.494325
v -7.368564 2.392497 -8.582836
v -7.374698 2.629027 -8.713101
v -7.649665 1.593742 -8.432915
v -7.647075 1.867971 -8.428995
v -7.644180 2.142029 -8.473291
v -7.641105 2.404692 -8.563158
v -7.637975 2.644818 -8.695650
v -7.912776 1.598972 -8.457701
v -7.919439 1.868965 -8.454123
v -7.920705 2.138970 -8.497829
v -7.913558 2.397695 -8.586288
v -7.901264 2.634050 -8.716437
v -8.163126 1.604597 -8.526226
v -8.180037 1.863662 -8.524932
v -8.185524 2.124447 -8.567714
v -8.174355 2.374514 -8.652628
v -8.152032 2.602089 -8.775568
v -7.134786 1.584403 -8.561255
v -7.112463 1.811978 -8.684194
v -7.101294 2.062046 -8.769109
v -7.106781 2.322830 -8.811891
v -7.123692 2.581896 -8.810596
v -7.385554 1.552443 -8.620385
v -7.373260 1.788797 -8.750534
v -7.366113 2.047522 -8.838993
v -7.367379 2.317527 -8.882700
v -7.374042 2.587520 -8.879122
v -7.648843 1.541675 -8.641172
v -7.645713 1.781800 -8.773664
v -7.642638 2.044464 -8.863531
v -7.639744 2.318521 -8.907827
v -7.637153 2.592751 -8.903908
v -7.912120 1.557465 -8.623721
v -7.918254 1.793995 -8.753986
v -7.919344 2.052799 -8.842498
v -7.912374 2.322726 -8.886152
v -7.900608 2.592543 -8.882458
v -8.162962 1.594211 -8.567768
v -8.179380 1.822155 -8.690952
v -8.184702 2.072380 -8.775971
v -8.173699 2.333007 -8.818649
v -8.151868 2.591703 -8.817109
v -7.062902 1.808238 -8.594863
v -7.050774 2.087593 -8.664657
v -7.056686 2.367121 -8.734566
v -7.074917 2.633520 -8.801241
v -7.349074 2.656697 -8.808118
v -7.637014 2.668196 -8.812130
v -7.925149 2.662192 -8.811768
v -8.199763 2.644250 -8.808366
v -8.223916 2.378254 -8.741960
v -8.236045 2.098899 -8.672165
v -8.230132 1.819372 -8.602257
v -8.211901 1.552972 -8.535582
v -7.937744 1.529795 -8.528704
v -7.649804 1.518297 -8.524692
v -7.361669 1.524301 -8.525055
v -7.087054 1.542243 -8.528456
vn 0.3872 -0.1854 0.9032
vn 0.5588 0.0606 0.8271
vn 0.6138 0.1850 0.7675
vn 0.5617 0.3240 0.7613
vn 0.3957 0.5804 0.7118
vn 0.1265 -0.3502 0.9281
vn 0.1665 0.0666 0.9838
vn 0.1681 0.2373 0.9568
vn 0.1702 0.4006 0.9003
vn 0.1387 0.7429 0.6548
vn -0.0097 -0.4075 0.9131
vn -0.0056 0.0721 0.9974
vn -0.0038 0.2425 0.9701
vn -0.0019 0.4057 0.9140
vn 0.0036 0.7893 0.6140
vn -0.1449 -0.3476 0.9264
vn -0.1777 0.0699 0.9816
vn -0.1757 0.2406 0.9546
vn -0.1740 0.4039 0.8981
vn -0.1328 0.7455 0.6531
vn -0.4021 -0.1779 0.8982
vn -0.5680 0.0714 0.8199
vn -0.6198 0.1968 0.7596
vn -0.5650 0.3347 0.7541
vn -0.3936 0.5879 0.7068
vn 0.3936 -0.5879 -0.7068
vn 0.5650 -0.3347 -0.7541
vn 0.6198 -0.1968 -0.7596
vn 0.5680 -0.0714 -0.8199
vn 0.4021 0.1779 -0.8982
vn 0.1328 -0.7455 -0.6531
vn 0.1740 -0.4039 -0.8981
vn 0.1757 -0.2406 -0.9546
vn 0.1777 -0.0699 -0.9816
vn 0.1449 0.3476 -0.9264
vn -0.0036 -0.7893 -0.6140
vn 0.0019 -0.4057 -0.9140
vn 0.0038 -0.2425 -0.9701
vn 0.0056 -0.0721 -0.9974
vn 0.0097 0.4075 -0.9131
vn -0.1387 -0.7429 -0.6548
vn -0.1702 -0.4006 -0.9003
vn -0.1681 -0.2373 -0.9568
vn -0.1665 -0.0666 -0.9838
vn -0.1265 0.3502 -0.9281
vn -0.3957 -0.5804 -0.7118
vn -0.5617 -0.3240 -0.7613
vn -0.6138 -0.1850 -0.7675
vn -0.5588 -0.0606 -0.8271
vn -0.3872 0.1854 -0.9032
vn 0.9902 -0.1348 0.0376
vn 0.9999 -0.0095 0.0063
vn 0.9929 0.1159 -0.0251
vn 0.7147 0.6792 -0.1670
vn 0.1399 0.9607 -0.2396
vn 0.0108 0.9701 -0.2425
vn -0.1185 0.9632 -0.2413
vn -0.6994 0.6927 -0.1759
vn -0.9902 0.1348 -0.0376
vn -0.9999 0.0095 -0.0063
vn -0.9929 -0.1159 0.0251
vn -0.7147 -0.6792 0.1670
vn -0.1399 -0.9607 0.2396
vn -0.0108 -0.9701 0.2425
vn 0.1185 -0.9632 0.2413
vn 0.6994 -0.6927 0.1759
vt 0.437500 0.812500
vt 0.468750 0.812500
vt 0.468750 0.843750
vt 0.437500 0.843750
vt 0.500000 0.812500
vt 0.500000 0.843750
vt 0.531250 0.812500
vt 0.531250 0.843750
vt 0.562500 0.812500
vt 0.562500 0.843750
vt 0.468750 0.875000
vt 0.437500 0.875000
vt 0.500000 0.875000
vt 0.531250 0.875000
vt 0.562500 0.875000
vt 0.468750 0.906250
vt 0.437500 0.906250
vt 0.500000 0.906250
vt 0.531250 0.906250
vt 0.562500 0.906250
vt 0.468750 0.937500
vt 0.437500 0.937500
vt 0.500000 0.937500
vt 0.531250 0.937500
vt 0.562500 0.937500
s 1
f 1/1/1 2/2/2 7/3/7 6/4/6
f 2/2/2 3/5/3 8/6/8 7/3/7
f 3/5/3 4/7/4 9/8/9 8/6/8
f 4/7/4 5/9/5 10/10/10 9/8/9
f 6/4/6 7/3/7 12/11/12 11/12/11
f 7/3/7 8/6/8 13/13/13 12/11/12
f 8/6/8 9/8/9 14/14/14 13/13/13
f 9/8/9 10/10/10 15/15/15 14/14/14
f 11/12/11 12/11/12 17/16/17 16/17/16
f 12/11/12 13/13/13 18/18/18 17/16/17
f 13/13/13 14/14/14 19/19/19 18/18/18
f 14/14/14 15/15/15 20/20/20 19/19/19
f 16/17/16 17/16/17 22/21/22 21/22/21
f 17/16/17 18/18/18 23/23/23 22/21/22
f 18/18/18 19/19/19 24/24/24 23/23/23
f 19/19/19 20/20/20 25/25/25 24/24/24
f 26/1/26 31/4/31 32/3/32 27/2/27
f 27/2/27 32/3/32 33/6/33 28/5/28
f 28/5/28 33/6/33 34/8/34 29/7/29
f 29/7/29 34/8/34 35/10/35 30/9/30
f 31/4/31 36/12/36 37/11/37 32/3/32
f 32/3/32 37/11/37 38/13/38 33/6/33
f 33/6/33 38/13/38 39/14/39 34/8/34
f 34/8/34 39/14/39 40/15/40 35/10/35
f 36/12/36 41/17/41 42/16/42 37/11/37
f 37/11/37 42/16/42 43/18/43 38/13/38
f 38/13/38 43/18/43 44/19/44 39/14/39
f 39/14/39 44/19/44 45/20/45 40/15/40
f 41/17/41 46/22/46 47/21/47 42/16/42
f 42/16/42 47/21/47 48/23/48 43/18/43
f 43/18/43 48/23/48 49/24/49 44/19/44
f 44/19/44 49/24/49 50/25/50 45/20/45
f 51/2/51 52/5/52 3/5/3 2/2/2
f 52/5/52 53/7/53 4/7/4 3/5/3
f 53/7/53 54/9/54 5/9/5 4/7/4
f 54/9/54 55/10/55 10/10/10 5/9/5
f 55/10/55 56/15/56 15/15/15 10/10/10
f 56/15/56 57/20/57 20/20/20 15/15/15
f 57/20/57 58/25/58 25/25/25 20/20/20
f 58/25/58 59/24/59 24/24/24 25/25/25
f 59/24/59 60/23/60 23/23/23 24/24/24
f 60/23/60 61/21/61 22/21/22 23/23/23
f 61/21/61 62/22/62 21/22/21 22/21/22
f 62/22/62 63/17/63 16/17/16 21/22/21
f 63/17/63 64/12/64 11/12/11 16/17/16
f 64/12/64 65/4/65 6/4/6 11/12/11
f 65/4/65 66/1/66 1/1/1 6/4/6
f 66/1/66 51/2/51 2/2/2 1/1/1
f 26/1/26 27/2/27 51/2/51 66/1/66
f 31/4/31 26/1/26 66/1/66 65/4/65
f 36/12/36 31/4/31 65/4/65 64/12/64
f 41/17/41 36/12/36 64/12/64 63/17/63
f 46/22/46 41/17/41 63/17/63 62/22/62
f 47/21/47 46/22/46 62/22/62 61/21/61
f 48/23/48 47/21/47 61/21/61 60/23/60
f 49/24/49 48/23/48 60/23/60 59/24/59
f 50/25/50 49/24/49 59/24/59 58/25/58
f 45/20/45 50/25/50 58/25/58 57/20/57
f 40/15/40 45/20/45 57/20/57 56/15/56
f 35/10/35 40/15/40 56/15/56 55/10/55
f 30/9/30 35/10/35 55/10/55 54/9/54
f 29/7/29 30/9/30 54/9/54 53/7/53
f 28/5/28 29/7/29 53/7/53 52/5/52
f 27/2/27 28/5/28 52/5/52 51/2/51
