# Blender 4.1.1
# www.blender.org
o Cube
v 10.000000 10.000000 -10.000000
v 10.000000 0.000000 -10.000000
v 10.000000 10.000000 10.000000
v -10.000000 0.000000 -10.000000
v -10.000000 0.000000 10.000000
v 10.000000 8.085188 -10.000000
v -10.000000 8.085188 -10.000000
v -7.914507 0.000000 -10.000000
v -7.914507 10.000000 10.000000
v -7.914507 10.000000 -10.000000
v -7.914507 8.085188 -10.000000
v -10.000000 8.085188 10.000000
v -7.914507 10.000000 10.000000
v -7.914507 8.085188 10.000000
v -10.000000 0.000000 0.791897
v -10.000000 8.085188 0.791897
v -7.914508 8.085188 0.791897
v -7.914508 10.000000 0.791897
v -7.914507 8.085188 -6.322888
v -7.914507 10.000000 -6.322888
v -10.000000 0.000000 -6.322888
v -10.000000 8.085188 -6.322888
v -10.000000 8.085188 -2.508463
v -7.914507 8.085188 -2.508464
v -7.914507 10.000000 -2.508464
v 10.000000 6.460766 -10.000000
v -10.000000 6.460766 -10.000000
v -7.914507 6.460766 -10.000000
v -10.000000 6.460766 10.000000
v -10.000000 6.460767 0.791897
v -10.000000 6.460766 -6.322888
v -10.000000 6.460766 -2.508463
v -10.711741 0.000000 0.791897
v -10.711741 0.000000 -6.322888
v -10.711741 6.460767 0.791897
v -10.711741 6.460766 -6.322888
v -10.711741 6.460766 -2.508463
vn 1.0000 -0.0000 -0.0000
vn -0.0000 -0.0000 1.0000
vn -0.0000 -1.0000 -0.0000
vn -0.0000 -0.0000 -1.0000
vt 0.625000 0.276069
vt 0.577130 0.276069
vt 0.536519 0.276069
vt 0.536519 0.500000
vt 0.577130 0.500000
vt 0.625000 0.500000
vt 0.577130 0.250000
vt 0.536519 0.250000
vt 0.625000 0.750000
vt 0.848931 0.750000
vt 0.848931 0.500000
vt 0.527284 0.268470
vt 0.486291 0.350457
vt 0.509416 0.304206
vt 0.517705 0.287629
vt 0.125000 0.750000
vt 0.240101 0.519797
vt 0.329036 0.341928
vt 0.375000 0.250000
vt 0.375000 0.276069
vt 0.375000 0.500000
s 0
f 18/1/1 13/1/1 14/2/1 17/2/1
f 28/3/2 26/4/2 6/5/2 11/2/2
f 11/2/2 6/5/2 1/6/2 10/1/2
f 17/2/3 14/2/3 12/7/3 16/7/3
f 27/8/2 28/3/2 11/2/2 7/7/2
f 1/6/3 3/9/3 9/10/3 10/11/3
f 31/12/1 27/8/1 7/7/1 22/7/1
f 29/13/1 30/14/1 16/7/1 12/7/1
f 24/2/3 17/2/3 16/7/3 23/7/3
f 25/1/1 18/1/1 17/2/1 24/2/1
f 10/1/1 20/1/1 19/2/1 11/2/1
f 11/2/3 19/2/3 22/7/3 7/7/3
f 32/15/1 31/12/1 22/7/1 23/7/1
f 30/14/1 32/15/1 23/7/1 16/7/1
f 20/1/1 25/1/1 24/2/1 19/2/1
f 19/2/3 24/2/3 23/7/3 22/7/3
f 5/16/1 15/17/1 30/14/1 29/13/1
f 21/18/1 4/19/1 27/8/1 31/12/1
f 4/19/2 8/20/2 28/3/2 27/8/2
f 8/20/2 2/21/2 26/4/2 28/3/2
f 31/12/3 32/15/3 37/15/3 36/12/3
f 21/18/2 31/12/2 36/12/2 34/18/2
f 32/15/3 30/14/3 35/14/3 37/15/3
f 30/14/4 15/17/4 33/17/4 35/14/4
