# Blender 4.1.1
# www.blender.org
o Cube.007
v -1.670294 1.466647 -6.520718
v -1.670294 1.466647 -8.321943
v 0.179036 1.466647 -6.520718
v 0.179036 1.466647 -8.321943
v -1.670294 1.327323 -6.520718
v -1.670294 1.327323 -8.321943
v 0.179036 1.327323 -6.520718
v 0.179036 1.327323 -8.321943
v 0.179036 1.466647 -8.461080
v -1.670294 1.466647 -8.461080
v -1.670294 1.466647 -6.381581
v 0.179036 1.466647 -6.381581
v 0.179036 1.327323 -8.461080
v -1.670294 1.327323 -8.461080
v -1.670294 1.327323 -6.381581
v 0.179036 1.327323 -6.381581
v -1.810940 1.466647 -8.321943
v -1.810940 1.466647 -6.520718
v 0.319681 1.466647 -6.520718
v 0.319681 1.466647 -8.321943
v -1.810940 1.327323 -8.321943
v -1.810940 1.327323 -6.520718
v 0.319681 1.327323 -6.520718
v 0.319681 1.327323 -8.321943
v 0.319681 1.466647 -8.461080
v 0.319681 1.327323 -8.461080
v -1.810940 1.327323 -8.461080
v -1.810940 1.466647 -8.461080
v -1.810940 1.327323 -6.381581
v -1.810940 1.466647 -6.381581
v 0.319681 1.466647 -6.381581
v 0.319681 1.327323 -6.381581
v -1.670294 0.001899 -8.321943
v -1.670294 0.001899 -6.520718
v 0.179036 0.001899 -8.321943
v 0.179036 0.001899 -6.520718
v -1.810940 0.001899 -8.321943
v -1.810940 0.001899 -6.520718
v 0.179036 0.001899 -8.461080
v -1.670294 0.001899 -8.461080
v -1.670294 0.001899 -6.381581
v 0.179036 0.001899 -6.381581
v 0.319681 0.001899 -6.520718
v 0.319681 0.001899 -8.321943
v -1.810940 0.001899 -8.461080
v 0.319681 0.001899 -6.381581
v -1.810940 0.001899 -6.381581
v 0.319681 0.001899 -8.461080
v -1.810940 0.118682 -8.321943
v -1.810940 0.118682 -8.461080
v 0.319681 0.118682 -6.381581
v 0.179036 0.118682 -6.381581
v 0.319681 0.118682 -6.520718
v 0.319681 0.118682 -8.461080
v 0.179036 0.118682 -8.461080
v -1.670294 0.118682 -8.461080
v -1.810940 0.118682 -6.520718
v -1.810940 0.118682 -6.381581
v -1.670294 0.118682 -6.381581
v 0.319681 0.118682 -8.321943
v 0.179036 0.119310 -6.520718
v 0.179036 0.119310 -8.321943
v -1.670294 0.119310 -8.321943
v -1.670294 0.119310 -6.520718
vn -0.0000 1.0000 -0.0000
vn -0.0000 -1.0000 -0.0000
vn -0.0000 -0.0000 -1.0000
vn -0.0000 -0.0000 1.0000
vn 1.0000 -0.0000 -0.0000
vn -1.0000 -0.0000 -0.0000
vn 0.0045 1.0000 -0.0000
vn -0.0045 1.0000 -0.0000
vn -0.0000 1.0000 -0.0045
vn -0.0000 1.0000 0.0045
vt 0.320221 0.328409
vt 0.320221 0.023211
vt 0.343183 0.023211
vt 0.343183 0.328409
vt 0.297259 0.351620
vt 0.297259 0.656817
vt 0.000000 0.656817
vt 0.000000 0.351620
vt 0.519716 0.680028
vt 0.519716 0.374831
vt 0.538989 0.374831
vt 0.538989 0.680028
vt 0.343183 0.351620
vt 0.320221 0.351620
vt 0.022962 0.023211
vt 0.000000 0.023211
vt 0.000000 0.000000
vt 0.022962 0.000000
vt 0.297259 0.680028
vt 0.297259 0.374831
vt 0.320252 0.374831
vt 0.320252 0.680028
vt 0.561982 0.374831
vt 0.561982 0.680028
vt 0.519716 0.351620
vt 0.538989 0.351620
vt 0.908822 0.022962
vt 0.908822 0.000000
vt 0.928095 0.000000
vt 0.928095 0.022962
vt 0.561982 0.703239
vt 0.538989 0.703239
vt 0.911817 0.648879
vt 0.911817 0.351620
vt 0.931193 0.351620
vt 0.931193 0.648879
vt 0.022962 0.328409
vt 0.000000 0.328409
vt 0.022962 0.351620
vt 0.000000 0.351620
vt 0.000000 0.977038
vt 0.000000 0.679779
vt 0.022993 0.679779
vt 0.022993 0.977038
vt 0.686365 0.320221
vt 0.686365 0.022962
vt 0.709358 0.022962
vt 0.709358 0.320221
vt 0.000000 0.656817
vt 0.022993 0.656817
vt 0.022993 1.000000
vt -0.000000 1.000000
vt 0.709358 0.343183
vt 0.686365 0.343183
vt 0.686365 -0.000000
vt 0.709358 -0.000000
vt 0.873064 0.656817
vt 0.873064 0.351620
vt 0.892440 0.351620
vt 0.892440 0.656817
vt 0.320221 0.000000
vt 0.343183 0.000000
vt 0.222457 0.679779
vt 0.222457 0.656817
vt 0.241730 0.656817
vt 0.241730 0.679779
vt 0.297259 0.351620
vt 0.320252 0.351620
vt 0.826642 0.946138
vt 0.826642 0.648879
vt 0.846019 0.648879
vt 0.846019 0.946138
vt 0.320252 0.703239
vt 0.297259 0.703239
vt 0.761445 0.703239
vt 0.761445 0.680028
vt 0.780718 0.680028
vt 0.780718 0.703239
vt 0.561982 0.351620
vt 0.366145 0.328409
vt 0.663404 0.328409
vt 0.663404 0.351620
vt 0.366145 0.351620
vt 0.366145 0.023211
vt 0.343183 0.328409
vt 0.343183 0.023211
vt 0.663404 0.023211
vt 0.686365 0.023211
vt 0.686365 0.328409
vt 0.366145 0.000000
vt 0.663404 0.000000
vt 0.686365 0.000000
vt 0.343183 0.351620
vt 0.343183 0.000000
vt 0.686365 0.351620
vt 0.911817 0.656817
vt 0.222457 1.000000
vt 0.222457 0.977038
vt 0.241730 0.977038
vt 0.241730 1.000000
vt 0.761445 0.374831
vt 0.761445 0.351620
vt 0.780718 0.351620
vt 0.780718 0.374831
vt 0.908822 0.343183
vt 0.908822 0.320221
vt 0.928095 0.320221
vt 0.928095 0.343183
vt 0.519716 0.703239
vt 0.826642 0.656817
vt 0.826642 0.856281
vt 0.803680 0.856178
vt 0.803680 0.656817
vt 0.780718 0.856281
vt 0.780718 0.656817
vt 0.803680 0.656817
vt 0.803680 0.856178
vt 0.849853 0.351620
vt 0.849853 0.648879
vt 0.826642 0.648879
vt 0.826642 0.351620
vt 0.873064 0.351620
vt 0.873064 0.648879
vt 0.803680 0.351620
vt 0.780718 0.656817
vt 0.780718 0.351620
vt 0.241730 0.856281
vt 0.241730 0.656817
vt 0.264941 0.656817
vt 0.264941 0.856178
vt 0.826642 0.656817
vt 0.803680 0.351620
vt 0.826642 0.351620
vt 0.288152 0.856281
vt 0.288152 0.656817
s 0
f 2/1/1 4/2/1 9/3/1 10/4/1
f 6/5/2 8/6/2 7/7/2 5/8/2
f 56/9/3 55/10/3 39/11/3 40/12/3
f 2/1/1 10/4/1 28/13/1 17/14/1
f 3/15/1 12/16/1 31/17/1 19/18/1
f 10/19/3 9/20/3 13/21/3 14/22/3
f 12/12/4 11/11/4 15/23/4 16/24/4
f 55/10/3 54/25/3 48/26/3 39/11/3
f 53/27/5 51/28/5 46/29/5 43/30/5
f 12/12/4 16/24/4 32/31/4 31/32/4
f 61/33/6 62/34/6 35/35/6 36/36/6
f 3/15/1 1/37/1 11/38/1 12/16/1
f 11/38/1 1/37/1 18/39/1 30/40/1
f 18/41/6 17/42/6 21/43/6 22/44/6
f 20/45/5 19/46/5 23/47/5 24/48/5
f 21/43/6 17/42/6 28/49/6 27/50/6
f 18/41/6 22/44/6 29/51/6 30/52/6
f 20/45/5 24/48/5 26/53/5 25/54/5
f 23/47/5 19/46/5 31/55/5 32/56/5
f 62/57/4 63/58/4 33/59/4 35/60/4
f 4/2/1 3/15/1 19/18/1 20/61/1
f 1/37/1 2/1/1 17/14/1 18/39/1
f 9/3/1 4/2/1 20/61/1 25/62/1
f 49/63/6 50/64/6 45/65/6 37/66/6
f 13/21/3 9/20/3 25/67/3 26/68/3
f 63/69/5 64/70/5 34/71/5 33/72/5
f 10/19/3 14/22/3 27/73/3 28/74/3
f 51/75/4 52/76/4 42/77/4 46/78/4
f 15/23/4 11/11/4 30/26/4 29/79/4
f 36/80/2 35/81/2 44/82/2 43/83/2
f 34/84/2 36/80/2 42/85/2 41/86/2
f 35/81/2 33/87/2 40/88/2 39/89/2
f 33/87/2 34/84/2 38/90/2 37/91/2
f 40/88/2 33/87/2 37/91/2 45/92/2
f 42/85/2 36/80/2 43/83/2 46/93/2
f 34/84/2 41/86/2 47/94/2 38/90/2
f 35/81/2 39/89/2 48/95/2 44/82/2
f 64/60/3 61/59/3 36/34/3 34/96/3
f 58/97/6 57/98/6 38/99/6 47/100/6
f 59/101/4 58/102/4 47/103/4 41/104/4
f 52/76/4 59/101/4 41/104/4 42/77/4
f 57/98/6 49/63/6 37/66/6 38/99/6
f 54/105/5 60/106/5 44/107/5 48/108/5
f 60/106/5 53/27/5 43/30/5 44/107/5
f 50/109/3 56/9/3 40/12/3 45/32/3
f 27/73/3 14/22/3 56/9/3 50/109/3
f 15/110/5 59/111/5 64/112/5 5/113/5
f 26/53/5 24/48/5 60/106/5 54/105/5
f 56/114/5 14/115/5 6/116/5 63/117/5
f 15/23/4 29/79/4 58/102/4 59/101/4
f 29/51/6 22/44/6 57/98/6 58/97/6
f 32/31/4 16/24/4 52/76/4 51/75/4
f 21/43/6 27/50/6 50/64/6 49/63/6
f 23/47/5 32/56/5 51/28/5 53/27/5
f 13/21/3 26/68/3 54/25/3 55/10/3
f 53/118/7 60/119/7 62/120/7 61/121/7
f 49/119/8 57/118/8 64/122/8 63/123/8
f 55/124/9 56/116/9 63/125/9 62/126/9
f 60/127/4 24/128/4 8/129/4 62/130/4
f 64/131/10 59/116/10 52/132/10 61/133/10
f 49/134/4 63/130/4 6/129/4 21/135/4
