# Blender v2.90.0 OBJ File: 'Scene1.blend'
# www.blender.org
mtllib SceneTable.mtl
o Table_Cube
v 1.000000 1.201164 2.000000
v 1.000000 1.001164 2.000000
v 1.000000 1.201164 1.846445
v 1.000000 1.001164 1.846445
v 0.833079 1.001164 2.000000
v 0.833079 1.201164 2.000000
v 0.833079 1.201164 1.846445
v 0.833079 1.001164 1.846445
v 1.000000 0.001164 2.000000
v 1.000000 0.001164 1.846445
v 0.833079 0.001164 2.000000
v 0.833079 0.001164 1.846445
v -1.000000 1.201164 2.000000
v -1.000000 1.001164 2.000000
v -1.000000 1.201164 1.846445
v -1.000000 1.001164 1.846445
v -0.833079 1.001164 2.000000
v -0.833079 1.201164 2.000000
v -0.833079 1.201164 1.846445
v -0.833079 1.001164 1.846445
v -1.000000 0.001164 2.000000
v -1.000000 0.001164 1.846445
v -0.833079 0.001164 2.000000
v -0.833079 0.001164 1.846445
v 1.000000 1.201164 -2.000000
v 1.000000 1.001164 -2.000000
v 1.000000 1.201164 -1.846445
v 1.000000 1.001164 -1.846445
v 0.833079 1.001164 -2.000000
v 0.833079 1.201164 -2.000000
v 0.833079 1.201164 -1.846445
v 0.833079 1.001164 -1.846445
v 1.000000 0.001164 -2.000000
v 1.000000 0.001164 -1.846445
v 0.833079 0.001164 -2.000000
v 0.833079 0.001164 -1.846445
v -1.000000 1.201164 -2.000000
v -1.000000 1.001164 -2.000000
v -1.000000 1.201164 -1.846445
v -1.000000 1.001164 -1.846445
v -0.833079 1.001164 -2.000000
v -0.833079 1.201164 -2.000000
v -0.833079 1.201164 -1.846445
v -0.833079 1.001164 -1.846445
v -1.000000 0.001164 -2.000000
v -1.000000 0.001164 -1.846445
v -0.833079 0.001164 -2.000000
v -0.833079 0.001164 -1.846445
vt 0.457774 0.787295
vt 0.457774 0.813689
vt 0.285889 0.813689
vt 0.285889 0.787295
vt 0.696288 0.413299
vt 0.696288 0.378921
vt 0.722683 0.378921
vt 0.722683 0.413299
vt 0.696288 0.063837
vt 0.722683 0.063837
vt 0.722683 0.350229
vt 0.696288 0.350229
vt 0.061537 0.378918
vt 0.061537 0.350226
vt 0.696288 0.035145
vt 0.061537 0.035147
vt 0.061537 0.000770
vt 0.696288 0.000767
vt 0.722681 0.441991
vt 0.722679 0.728378
vt 0.696285 0.728378
vt 0.696288 0.441991
vt 0.757060 0.378921
vt 0.757060 0.350229
vt 0.757060 0.063836
vt 0.457774 0.758604
vt 0.285889 0.758604
vt 0.457774 0.842380
vt 0.457774 0.868774
vt 0.285889 0.868774
vt 0.285889 0.842380
vt 0.459307 0.930489
vt 0.459308 0.758604
vt 0.485701 0.758604
vt 0.485701 0.930489
vt 0.722683 0.000767
vt 0.722683 0.035145
vt 0.061537 0.063838
vt 0.061537 0.441986
vt 0.061535 0.728373
vt 0.035141 0.728372
vt 0.035143 0.441986
vt 0.757060 0.035145
vt 0.540787 0.930489
vt 0.540787 0.758604
vt 0.569478 0.758604
vt 0.569478 0.930489
vt 0.514393 0.930489
vt 0.514393 0.758604
vt 0.229270 0.930489
vt 0.229270 0.758604
vt 0.255664 0.758604
vt 0.255664 0.930489
vt 0.061537 0.413295
vt 0.035143 0.413294
vt 0.035144 0.378918
vt 0.035144 0.350226
vt 0.035144 0.063838
vt 0.000767 0.378917
vt 0.000767 0.350226
vt 0.000767 0.063838
vt 0.200579 0.930489
vt 0.200579 0.758604
vt 0.174185 0.930489
vt 0.174185 0.758604
vt 0.284356 0.758604
vt 0.284356 0.930489
vt 0.172652 0.842380
vt 0.172652 0.868774
vt 0.000767 0.868774
vt 0.000767 0.842380
vt 0.035144 0.035147
vt 0.035144 0.000770
vt 0.696285 0.757071
vt 0.061534 0.757064
vt 0.000767 0.035147
vt 0.172652 0.813689
vt 0.000767 0.813689
vt 0.172652 0.787295
vt 0.000767 0.787295
vt 0.172652 0.758604
vt 0.000767 0.758604
vn 1.0000 0.0000 0.0000
vn 0.0000 1.0000 0.0000
vn -1.0000 0.0000 0.0000
vn 0.0000 -1.0000 0.0000
vn 0.0000 0.0000 1.0000
vn 0.0000 0.0000 -1.0000
usemtl Material
s off
f 4/1/1 2/2/1 9/3/1 10/4/1
f 4/5/1 3/6/1 1/7/1 2/8/1
f 19/9/2 18/10/2 6/11/2 7/12/2
f 3/6/2 27/13/2 31/14/2 7/12/2
f 15/15/3 39/16/3 40/17/3 16/18/3
f 5/19/4 17/20/4 20/21/4 8/22/4
f 3/6/2 7/12/2 6/11/2 1/7/2
f 2/23/5 1/7/5 6/11/5 5/24/5
f 17/25/5 5/24/5 6/11/5 18/10/5
f 8/26/6 4/1/6 10/4/6 12/27/6
f 5/28/3 8/29/3 12/30/3 11/31/3
f 2/2/5 5/28/5 11/31/5 9/3/5
f 16/32/3 22/33/3 21/34/3 14/35/3
f 16/18/3 14/36/3 13/37/3 15/15/3
f 19/9/2 43/38/2 39/16/2 15/15/2
f 32/39/4 44/40/4 41/41/4 29/42/4
f 32/39/4 8/22/4 20/21/4 44/40/4
f 15/15/2 13/37/2 18/10/2 19/9/2
f 14/43/5 17/25/5 18/10/5 13/37/5
f 20/44/6 24/45/6 22/46/6 16/47/6
f 17/48/1 23/49/1 24/45/1 20/44/1
f 14/35/5 21/34/5 23/49/5 17/48/5
f 28/50/1 34/51/1 33/52/1 26/53/1
f 28/54/1 26/55/1 25/56/1 27/13/1
f 43/38/2 31/14/2 30/57/2 42/58/2
f 8/22/4 32/39/4 28/54/4 4/5/4
f 27/13/2 25/56/2 30/57/2 31/14/2
f 26/59/6 29/60/6 30/57/6 25/56/6
f 41/61/6 42/58/6 30/57/6 29/60/6
f 32/62/5 36/63/5 34/51/5 28/50/5
f 29/64/3 35/65/3 36/63/3 32/62/3
f 26/53/6 33/52/6 35/66/6 29/67/6
f 40/68/3 38/69/3 45/70/3 46/71/3
f 40/17/3 39/16/3 37/72/3 38/73/3
f 16/74/4 40/75/4 44/40/4 20/21/4
f 19/9/2 7/12/2 31/14/2 43/38/2
f 39/16/2 43/38/2 42/58/2 37/72/2
f 38/76/6 37/72/6 42/58/6 41/61/6
f 44/77/5 40/68/5 46/71/5 48/78/5
f 41/79/1 44/77/1 48/78/1 47/80/1
f 38/81/6 41/79/6 47/80/6 45/82/6
f 4/5/1 28/54/1 27/13/1 3/6/1
