# Blender v2.90.0 OBJ File: 'Scene1.blend'
# www.blender.org
mtllib SceneMug.mtl
o Mug_Cube.003
v -0.000071 0.000777 -0.099702
v -0.000071 0.200777 -0.099702
v 0.070639 0.000777 -0.070412
v 0.070639 0.200777 -0.070412
v 0.099929 0.000777 0.000298
v 0.099929 0.200777 0.000298
v 0.070639 0.000777 0.071009
v 0.070639 0.200777 0.071009
v -0.000071 0.000777 0.100298
v -0.000071 0.200777 0.100298
v -0.070782 0.000777 0.071009
v -0.070782 0.200777 0.071009
v -0.100071 0.000777 0.000298
v -0.100071 0.200777 0.000298
v -0.070782 0.000777 -0.070412
v -0.070782 0.200777 -0.070412
v -0.000071 0.200777 -0.079702
v 0.056497 0.200777 -0.056270
v 0.079929 0.200777 0.000298
v 0.056497 0.200777 0.056867
v -0.000071 0.200777 0.080298
v -0.056640 0.200777 0.056867
v -0.080071 0.200777 0.000298
v -0.056640 0.200777 -0.056270
v -0.000071 0.010777 -0.079702
v 0.056497 0.010777 -0.056270
v 0.079929 0.010777 0.000298
v 0.056497 0.010777 0.056867
v -0.000071 0.010777 0.080298
v -0.056640 0.010777 0.056867
v -0.080071 0.010777 0.000298
v -0.056640 0.010777 -0.056270
v 0.093634 0.176265 -0.018651
v 0.079676 0.176265 -0.052348
v 0.080136 0.024959 -0.051238
v 0.093174 0.024959 -0.019760
v 0.164084 0.162415 -0.056917
v 0.155270 0.056373 -0.050546
v 0.156061 0.162415 -0.076284
v 0.146113 0.056373 -0.072653
v 0.105276 0.153510 -0.025080
v 0.104572 0.052996 -0.026518
v 0.146151 0.152351 -0.047227
v 0.139321 0.072676 -0.044768
v 0.094674 0.153033 -0.051119
v 0.093177 0.053509 -0.054502
v 0.136925 0.151948 -0.069127
v 0.129868 0.073089 -0.067204
vt 0.872415 0.887740
vt 0.907680 0.881916
vt 0.913070 0.894768
vt 0.875494 0.903405
vt 0.880040 0.801507
vt 0.884780 0.799536
vt 0.906983 0.807112
vt 0.909225 0.810948
vt 0.906545 0.821868
vt 0.876121 0.814492
vt 0.904866 0.833372
vt 0.873099 0.828155
vt 0.904041 0.845211
vt 0.871127 0.842403
vt 0.904122 0.857267
vt 0.870297 0.857138
vt 0.914113 0.800450
vt 0.916035 0.802542
vt 0.911927 0.811974
vt 0.905227 0.869469
vt 0.870695 0.872276
vt 0.907508 0.857243
vt 0.907369 0.845456
vt 0.941500 0.846469
vt 0.941821 0.855861
vt 0.908105 0.833856
vt 0.908666 0.869108
vt 0.911231 0.880933
vt 0.915990 0.891774
vt 0.909630 0.822586
vt 0.682715 0.812713
vt 0.690156 0.805271
vt 0.700681 0.805271
vt 0.708123 0.812713
vt 0.708123 0.823238
vt 0.700681 0.830680
vt 0.690156 0.830680
vt 0.682715 0.823238
vt 0.942835 0.828014
vt 0.941843 0.837175
vt 0.946562 0.809153
vt 0.944432 0.818991
vt 0.942800 0.865299
vt 0.944412 0.874713
vt 0.946562 0.883961
vt 0.883971 0.789880
vt 0.886518 0.794385
vt 0.909067 0.802042
vt 0.722311 0.773017
vt 0.712683 0.783222
vt 0.710356 0.781470
vt 0.719293 0.770341
vt 0.727415 0.758607
vt 0.733647 0.764384
vt 0.700507 0.789207
vt 0.699688 0.785388
vt 0.707923 0.780309
vt 0.707174 0.794817
vt 0.714406 0.785373
vt 0.712123 0.793543
vt 0.700002 0.780253
vt 0.705369 0.777431
vt 0.715927 0.768598
vt 0.720331 0.760788
vt 0.682715 0.772960
vt 0.687436 0.774407
vt 0.733647 0.803738
vt 0.729450 0.799698
vt 0.732072 0.771485
vt 0.724330 0.776374
vt 0.712087 0.766411
vt 0.715334 0.758604
vt 0.690079 0.771342
vn 0.3827 0.0000 -0.9239
vn 0.9483 -0.0002 -0.3172
vn 0.9239 0.0000 0.3827
vn 0.3827 0.0000 0.9239
vn -0.3827 0.0000 0.9239
vn -0.9239 0.0000 0.3827
vn 0.0000 1.0000 0.0000
vn -0.9239 0.0000 -0.3827
vn -0.3827 0.0000 -0.9239
vn 0.9239 0.0000 -0.3827
vn 0.9223 -0.0593 -0.3820
vn 0.9223 0.0585 -0.3820
vn 0.9193 -0.0993 -0.3808
vn 0.3821 -0.9105 -0.1583
vn 0.4765 -0.0040 0.8791
vn -0.3482 -0.1859 -0.9188
vn 0.1581 0.9852 -0.0655
vn -0.0151 -0.9996 0.0246
vn 0.4165 0.0081 0.9091
vn 0.4239 0.0635 0.9035
vn 0.4986 -0.0111 0.8668
vn -0.0742 0.0093 -0.9972
vn -0.3254 0.0226 -0.9453
vn -0.3352 0.0025 -0.9421
vn -0.9177 0.0911 0.3867
vn -0.4101 0.8929 0.1860
vn 0.9262 -0.0011 -0.3771
vn 0.8953 -0.0002 -0.4456
usemtl Material
s off
f 1/1/1 2/2/1 4/3/1 3/4/1
f 5/5/2 36/6/2 33/7/2 6/8/2
f 5/5/3 6/8/3 8/9/3 7/10/3
f 7/10/4 8/9/4 10/11/4 9/12/4
f 9/12/5 10/11/5 12/13/5 11/14/5
f 11/14/6 12/13/6 14/15/6 13/16/6
f 6/8/7 4/17/7 18/18/7 19/19/7
f 13/16/8 14/15/8 16/20/8 15/21/8
f 15/21/9 16/20/9 2/2/9 1/1/9
f 23/22/10 22/23/10 30/24/10 31/25/10
f 12/13/7 10/11/7 21/26/7 22/23/7
f 2/2/7 16/20/7 24/27/7 17/28/7
f 4/3/7 2/2/7 17/28/7 18/29/7
f 8/9/7 6/8/7 19/19/7 20/30/7
f 14/15/7 12/13/7 22/23/7 23/22/7
f 10/11/7 8/9/7 20/30/7 21/26/7
f 16/20/7 14/15/7 23/22/7 24/27/7
f 26/31/7 25/32/7 32/33/7 31/34/7 30/35/7 29/36/7 28/37/7 27/38/7
f 21/26/9 20/30/9 28/39/9 29/40/9
f 19/19/6 18/18/6 26/41/6 27/42/6
f 24/27/3 23/22/3 31/25/3 32/43/3
f 22/23/1 21/26/1 29/40/1 30/24/1
f 20/30/8 19/19/8 27/42/8 28/39/8
f 18/29/5 17/28/5 25/44/5 26/45/5
f 17/28/4 24/27/4 32/43/4 25/44/4
f 3/46/11 35/47/11 36/6/11 5/5/11
f 6/8/12 33/7/12 34/48/12 4/17/12
f 40/49/13 39/50/13 37/51/13 38/52/13
f 36/53/14 35/54/14 40/49/14 38/52/14
f 37/51/15 33/55/15 41/56/15 43/57/15
f 34/58/16 39/50/16 47/59/16 45/60/16
f 34/58/17 33/55/17 37/51/17 39/50/17
f 45/61/18 47/62/18 43/57/18 41/56/18
f 38/52/19 37/51/19 43/57/19 44/63/19
f 36/53/20 38/52/20 44/63/20 42/64/20
f 33/55/21 36/65/21 42/66/21 41/56/21
f 35/67/22 34/58/22 45/60/22 46/68/22
f 40/49/23 35/54/23 46/69/23 48/70/23
f 39/50/24 40/49/24 48/70/24 47/59/24
f 47/62/25 48/71/25 44/63/25 43/57/25
f 48/71/26 46/72/26 42/64/26 44/63/26
f 46/73/27 45/61/27 41/56/27 42/66/27
f 4/17/28 34/48/28 35/47/28 3/46/28
