# Blender v2.90.0 OBJ File: 'Mug.blend'
# www.blender.org
mtllib Mug2.mtl
o Cylinder
v 0.000000 0.530564 -0.800000
v 0.565685 0.530564 -0.565685
v 0.800000 0.530564 0.000000
v 0.565685 0.530564 0.565685
v -0.000000 0.530564 0.800000
v -0.565686 0.530564 0.565685
v -0.565686 0.530564 -0.565685
v -0.926519 0.380564 0.177399
v -0.926519 0.380564 -0.177399
v -0.926519 1.880564 -0.177399
v -0.926519 1.880564 0.177399
v -0.926519 1.773277 -0.177399
v -0.926519 1.773277 0.177399
v -0.926519 0.495179 -0.177399
v -0.926519 0.495179 0.177399
v -0.737266 0.530564 -0.151454
v -0.737266 0.530564 0.151454
v -1.107148 0.405444 0.177399
v -1.107148 0.405444 -0.177399
v -1.079557 0.516154 -0.177399
v -1.079557 0.516154 0.177399
v -1.275633 0.479740 0.177399
v -1.275633 0.479740 -0.177399
v -1.222331 0.578999 -0.177399
v -1.222331 0.578999 0.177399
v -1.420492 0.598388 0.177399
v -1.420492 0.598388 -0.177399
v -1.345111 0.679433 -0.177399
v -1.345111 0.679433 0.177399
v -1.531853 0.753303 0.177399
v -1.531853 0.753303 -0.177399
v -1.439531 0.810611 -0.177399
v -1.439531 0.810611 0.177399
v -1.602127 0.933928 0.177399
v -1.602127 0.933928 -0.177399
v -1.499155 0.963593 -0.177399
v -1.499155 0.963593 0.177399
v -1.626525 1.127953 0.177399
v -1.626525 1.127954 -0.177399
v -1.519921 1.127953 -0.177399
v -1.519921 1.127953 0.177399
v -1.603384 1.322157 0.177399
v -1.603384 1.322157 -0.177399
v -1.500413 1.292492 -0.177399
v -1.500413 1.292492 0.177399
v -1.534281 1.503303 0.177399
v -1.534281 1.503303 -0.177399
v -1.441960 1.445996 -0.177399
v -1.441960 1.445996 0.177399
v -1.423926 1.659048 0.177399
v -1.423926 1.659048 -0.177399
v -1.348546 1.578003 -0.177399
v -1.348546 1.578003 0.177399
v -1.279839 1.778778 0.177399
v -1.279839 1.778778 -0.177399
v -1.226537 1.679518 -0.177399
v -1.226537 1.679518 0.177399
v -1.111839 1.854333 0.177399
v -1.111839 1.854333 -0.177399
v -1.084248 1.743623 -0.177399
v -1.084248 1.743623 0.177399
v 0.000000 0.005564 -1.000000
v 0.707107 0.005564 -0.707107
v 1.000000 0.005564 0.000000
v 0.707107 0.005564 0.707107
v -0.000000 0.005564 1.000000
v -0.707107 0.005564 0.707107
v -0.707107 0.005564 -0.707107
v -0.926519 0.005564 0.177399
v -0.926519 0.005564 -0.177399
v 0.000000 2.255564 -1.000000
v 0.707107 2.255564 -0.707107
v 1.000000 2.255564 0.000000
v 0.707107 2.255564 0.707107
v -0.000000 2.255564 1.000000
v -0.707107 2.255564 0.707107
v -0.707107 2.255564 -0.707107
v 0.000000 2.255564 -0.800000
v 0.565685 2.255564 -0.565685
v 0.800000 2.255564 0.000000
v 0.565685 2.255564 0.565685
v -0.000000 2.255564 0.800000
v -0.565686 2.255564 0.565685
v -0.565686 2.255564 -0.565685
v -0.926519 2.255564 -0.177399
v -0.926519 2.255564 0.177399
v -0.737177 2.255564 -0.151667
v -0.737177 2.255564 0.151667
vt 0.419706 0.080294
vt 0.490000 0.250000
vt 0.028820 0.204564
vt 0.750000 0.010000
vt 0.580294 0.080294
vt 0.527635 0.207424
vt 0.419706 0.419706
vt 0.028820 0.295436
vt 0.250000 0.490000
vt 0.080294 0.419706
vt 0.080294 0.080294
vt 0.250000 0.010000
vt 0.580294 0.419706
vt 0.750000 0.490000
vt 0.527635 0.292576
vt 0.919706 0.419706
vt 0.990000 0.250000
vt 0.919706 0.080294
vt 0.750000 1.000000
vt 0.625000 0.500000
vt 0.750000 0.500000
vt 0.625000 1.000000
vt 0.500000 0.500000
vt 0.500000 1.000000
vt 0.375000 0.500000
vt 0.125000 0.500000
vt 0.218640 0.500000
vt 0.218640 0.538205
vt 0.375000 1.000000
vt 0.281360 1.000000
vt 0.281360 0.964237
vt 0.500000 1.000000
vt 0.625000 1.000000
vt 0.500000 1.000000
vt 0.750000 1.000000
vt 0.750000 1.000000
vt 0.875000 1.000000
vt 0.875000 1.000000
vt 0.125000 1.000000
vt 0.216486 1.000000
vt 0.216533 1.000000
vt 0.125000 1.000000
vt 0.000000 1.000000
vt 0.000000 1.000000
vt 0.283467 1.000000
vt 0.375000 1.000000
vt 0.375000 1.000000
vt 1.000000 0.500000
vt 0.875000 1.000000
vt 0.875000 0.500000
vt 0.000000 1.000000
vt 0.000000 0.500000
vt 0.281360 0.538205
vt 0.283514 1.000000
vt 0.527635 0.292576
vt 0.527635 0.207424
vt 0.527635 0.292576
vt 0.281360 0.500000
vt 0.281360 0.500000
vt 0.281360 0.538205
vt 0.218640 0.500000
vt 0.218640 0.538205
vt 0.281360 0.538205
vt 0.527635 0.207424
vt 0.527635 0.292576
vt 0.281360 0.500000
vt 0.218640 0.500000
vt 0.218640 0.538205
vt 0.281360 0.500000
vt 0.218640 0.500000
vt 0.218640 0.538205
vt 0.281360 0.538205
vt 0.527635 0.207424
vt 0.527635 0.292576
vt 0.218640 0.500000
vt 0.218640 0.538205
vt 0.281360 0.538205
vt 0.527635 0.207424
vt 0.527635 0.292576
vt 0.281360 0.500000
vt 0.281360 0.538205
vt 0.527635 0.207424
vt 0.527635 0.292576
vt 0.281360 0.500000
vt 0.218640 0.500000
vt 0.218640 0.538205
vt 0.281360 0.500000
vt 0.218640 0.500000
vt 0.218640 0.538205
vt 0.281360 0.538205
vt 0.527635 0.207424
vt 0.527635 0.292576
vt 0.281360 0.538205
vt 0.527635 0.207424
vt 0.527635 0.292576
vt 0.281360 0.500000
vt 0.218640 0.538205
vt 0.527635 0.207424
vt 0.527635 0.292576
vt 0.281360 0.538205
vt 0.281360 0.500000
vt 0.218640 0.500000
vt 0.218640 0.538205
vt 0.281360 0.538205
vt 0.281360 0.500000
vt 0.218640 0.500000
vt 0.218640 0.538205
vt 0.527635 0.207424
vt 0.527635 0.292576
vt 0.281360 0.538205
vt 0.527635 0.207424
vt 0.527635 0.292576
vt 0.281360 0.500000
vt 0.218640 0.500000
vt 0.218640 0.538205
vt 0.281360 0.538205
vt 0.281360 0.500000
vt 0.218640 0.500000
vt 0.218640 0.538205
vt 0.527635 0.207424
vt 0.527635 0.292576
vt 0.218640 0.964237
vt 0.218640 0.500000
vt 0.527635 0.207424
vt 0.281360 1.000000
vt 1.000000 1.000000
vt 0.625000 1.000000
vt 0.218640 1.000000
vt 0.125000 1.000000
vt 0.218640 1.000000
vt 1.000000 1.000000
vt 1.000000 1.000000
vt 0.218640 0.500000
vt 0.281360 0.500000
vn 0.0000 1.0000 0.0000
vn 0.0000 -1.0000 -0.0000
vn 0.7764 0.6302 0.0000
vn 0.5490 -0.6302 0.5490
vn 0.7764 -0.6302 0.0000
vn 0.5490 0.6302 0.5490
vn 0.0000 -0.6302 0.7764
vn 0.0000 0.6302 0.7764
vn -0.5490 -0.6302 0.5490
vn -0.5490 -0.6302 -0.5490
vn -0.8373 -0.2779 -0.4708
vn -0.7906 0.2888 -0.5399
vn -0.5490 0.6302 0.5490
vn -0.8379 0.2777 0.4699
vn -0.7817 -0.2885 0.5529
vn 0.0000 0.8042 -0.5943
vn -0.5490 0.6302 -0.5490
vn 0.0000 0.6302 -0.7764
vn -0.5943 0.8042 0.0000
vn -0.7764 0.6302 0.0000
vn -0.4203 0.8042 0.4203
vn 0.6445 0.7537 0.1282
vn 0.7319 0.6657 0.1455
vn 0.4203 0.8042 0.4203
vn 0.0000 0.8042 0.5943
vn 0.7319 0.6657 -0.1455
vn 0.5490 0.6302 -0.5490
vn 0.4203 0.8042 -0.4203
vn 0.0000 -0.6302 -0.7764
vn 0.5490 -0.6302 -0.5490
vn -0.7906 0.2888 0.5399
vn 0.6445 0.7537 -0.1282
vn -0.2006 -0.7079 0.6771
vn -0.2006 -0.7079 -0.6771
vn -0.8373 -0.2779 0.4708
vn 0.1830 0.6475 0.7397
vn 0.1830 0.6475 -0.7397
vn 0.3523 0.5745 0.7388
vn -0.3847 -0.6264 0.6779
vn -0.3847 -0.6264 -0.6779
vn 0.3523 0.5745 -0.7388
vn -0.5352 -0.5025 0.6789
vn -0.5352 -0.5025 -0.6789
vn 0.4919 0.4624 -0.7376
vn 0.4919 0.4624 0.7376
vn -0.6446 -0.3497 -0.6799
vn 0.5943 0.3229 -0.7365
vn 0.5943 0.3229 0.7365
vn -0.6446 -0.3497 0.6799
vn 0.6564 0.1667 0.7358
vn -0.7103 -0.1799 0.6805
vn -0.7103 -0.1799 -0.6805
vn 0.6564 0.1667 -0.7358
vn -0.7325 -0.0023 0.6807
vn -0.7325 -0.0023 -0.6807
vn 0.6775 0.0026 -0.7355
vn 0.6775 0.0026 0.7355
vn 0.6576 -0.1616 0.7358
vn -0.7114 0.1752 0.6805
vn -0.7114 0.1752 -0.6805
vn 0.6576 -0.1616 -0.7358
vn -0.6469 0.3454 0.6799
vn -0.6469 0.3454 -0.6799
vn 0.5969 -0.3182 0.7365
vn 0.5969 -0.3182 -0.7365
vn 0.4957 -0.4584 0.7376
vn -0.5387 0.4988 0.6789
vn 0.4957 -0.4584 -0.7376
vn -0.5387 0.4988 -0.6789
vn 0.3572 -0.5715 0.7388
vn -0.3892 0.6236 0.6779
vn -0.3892 0.6236 -0.6779
vn 0.3572 -0.5715 -0.7388
vn 0.2034 -0.6471 0.7348
vn -0.2046 0.7071 0.6768
vn 0.2034 -0.6471 -0.7348
vn -0.2046 0.7071 -0.6768
vn -0.7817 -0.2885 -0.5529
vn -0.7319 -0.6657 0.1456
vn -0.7319 0.6657 0.1456
vn -0.4203 0.8042 -0.4203
vn -0.7319 0.6657 -0.1456
vn -0.8379 0.2777 -0.4699
vn -0.7319 -0.6657 -0.1456
usemtl None
s off
f 4/1/1 3/2/1 17/3/1
f 66/4/2 67/5/2 69/6/2
f 3/2/1 2/7/1 16/8/1
f 2/7/1 1/9/1 16/8/1
f 1/9/1 7/10/1 16/8/1
f 16/8/1 17/3/1 3/2/1
f 17/3/1 6/11/1 5/12/1
f 4/1/1 17/3/1 5/12/1
f 68/13/2 62/14/2 70/15/2
f 62/14/2 63/16/2 70/15/2
f 63/16/2 64/17/2 70/15/2
f 64/17/2 65/18/2 69/6/2
f 70/15/2 64/17/2 69/6/2
f 65/18/2 66/4/2 69/6/2
s 1
f 73/19/3 65/20/4 64/21/5
f 74/22/6 66/23/7 65/20/4
f 75/24/8 67/25/9 66/23/7
f 68/26/10 9/27/11 14/28/12
f 76/29/13 11/30/14 13/31/15
f 82/32/16 4/33/17 5/34/18
f 4/33/17 80/35/19 3/36/20
f 2/37/13 80/35/19 79/38/21
f 7/39/6 87/40/22 16/41/23
f 84/42/24 1/43/8 78/44/25
f 87/40/22 17/45/26 16/41/23
f 82/32/16 6/46/27 83/47/28
f 62/48/29 72/49/27 63/50/30
f 68/26/10 71/51/18 62/52/29
f 13/31/15 14/28/12 15/53/31
f 6/46/27 88/54/32 83/47/28
f 9/55/11 18/56/33 19/57/34
f 15/53/31 18/58/33 8/59/35
f 14/28/12 21/60/36 15/53/31
f 14/28/12 19/61/34 20/62/37
f 20/62/37 25/63/38 21/60/36
f 19/57/34 22/64/39 23/65/40
f 21/60/36 22/66/39 18/58/33
f 20/62/37 23/67/40 24/68/41
f 25/63/38 26/69/42 22/66/39
f 24/68/41 27/70/43 28/71/44
f 24/68/41 29/72/45 25/63/38
f 23/65/40 26/73/42 27/74/43
f 28/71/44 31/75/46 32/76/47
f 28/71/44 33/77/48 29/72/45
f 27/74/43 30/78/49 31/79/46
f 29/72/45 30/80/49 26/69/42
f 32/76/47 37/81/50 33/77/48
f 31/79/46 34/82/51 35/83/52
f 33/77/48 34/84/51 30/80/49
f 32/76/47 35/85/52 36/86/53
f 37/81/50 38/87/54 34/84/51
f 36/86/53 39/88/55 40/89/56
f 36/86/53 41/90/57 37/81/50
f 35/83/52 38/91/54 39/92/55
f 40/89/56 45/93/58 41/90/57
f 39/92/55 42/94/59 43/95/60
f 38/87/54 45/93/58 42/96/59
f 39/88/55 44/97/61 40/89/56
f 43/95/60 46/98/62 47/99/63
f 42/96/59 49/100/64 46/101/62
f 43/102/60 48/103/65 44/97/61
f 44/97/61 49/100/64 45/93/58
f 46/101/62 53/104/66 50/105/67
f 47/106/63 52/107/68 48/103/65
f 48/103/65 53/104/66 49/100/64
f 47/99/63 50/108/67 51/109/69
f 52/107/68 57/110/70 53/104/66
f 51/109/69 54/111/71 55/112/72
f 50/105/67 57/110/70 54/113/71
f 51/114/69 56/115/73 52/107/68
f 54/113/71 61/116/74 58/117/75
f 55/118/72 60/119/76 56/115/73
f 56/115/73 61/116/74 57/110/70
f 55/112/72 58/120/75 59/121/77
f 12/122/78 61/116/74 60/119/76
f 11/30/14 59/121/77 58/120/75
f 13/31/15 58/117/75 61/116/74
f 59/123/77 12/122/78 60/119/76
f 9/55/11 69/6/79 8/124/35
f 71/51/18 84/42/24 78/44/25
f 86/125/80 83/47/28 88/54/32
f 71/126/18 79/38/21 72/49/27
f 73/19/3 81/127/81 74/22/6
f 74/22/6 82/32/16 75/24/8
f 72/49/27 80/35/19 73/19/3
f 75/24/8 83/47/28 76/29/13
f 85/128/82 84/42/24 77/129/17
f 88/54/32 85/128/82 86/125/80
f 11/30/14 85/128/82 10/130/83
f 1/131/8 79/38/21 78/132/25
f 73/19/3 63/50/30 72/49/27
f 73/19/3 74/22/6 65/20/4
f 74/22/6 75/24/8 66/23/7
f 75/24/8 76/29/13 67/25/9
f 12/122/78 10/130/83 77/129/17
f 10/130/83 85/128/82 77/129/17
f 12/122/78 77/129/17 14/28/12
f 77/129/17 68/26/10 14/28/12
f 68/26/10 70/133/84 9/27/11
f 69/134/79 67/25/9 8/59/35
f 67/25/9 76/29/13 15/53/31
f 8/59/35 67/25/9 15/53/31
f 76/29/13 86/125/80 11/30/14
f 13/31/15 15/53/31 76/29/13
f 82/32/16 81/127/81 4/33/17
f 4/33/17 81/127/81 80/35/19
f 2/37/13 3/36/20 80/35/19
f 7/39/6 84/42/24 87/40/22
f 84/42/24 7/39/6 1/43/8
f 87/40/22 88/54/32 17/45/26
f 82/32/16 5/34/18 6/46/27
f 62/48/29 71/126/18 72/49/27
f 68/26/10 77/129/17 71/51/18
f 13/31/15 12/122/78 14/28/12
f 6/46/27 17/45/26 88/54/32
f 9/55/11 8/124/35 18/56/33
f 15/53/31 21/60/36 18/58/33
f 14/28/12 20/62/37 21/60/36
f 14/28/12 9/27/11 19/61/34
f 20/62/37 24/68/41 25/63/38
f 19/57/34 18/56/33 22/64/39
f 21/60/36 25/63/38 22/66/39
f 20/62/37 19/61/34 23/67/40
f 25/63/38 29/72/45 26/69/42
f 24/68/41 23/67/40 27/70/43
f 24/68/41 28/71/44 29/72/45
f 23/65/40 22/64/39 26/73/42
f 28/71/44 27/70/43 31/75/46
f 28/71/44 32/76/47 33/77/48
f 27/74/43 26/73/42 30/78/49
f 29/72/45 33/77/48 30/80/49
f 32/76/47 36/86/53 37/81/50
f 31/79/46 30/78/49 34/82/51
f 33/77/48 37/81/50 34/84/51
f 32/76/47 31/75/46 35/85/52
f 37/81/50 41/90/57 38/87/54
f 36/86/53 35/85/52 39/88/55
f 36/86/53 40/89/56 41/90/57
f 35/83/52 34/82/51 38/91/54
f 40/89/56 44/97/61 45/93/58
f 39/92/55 38/91/54 42/94/59
f 38/87/54 41/90/57 45/93/58
f 39/88/55 43/102/60 44/97/61
f 43/95/60 42/94/59 46/98/62
f 42/96/59 45/93/58 49/100/64
f 43/102/60 47/106/63 48/103/65
f 44/97/61 48/103/65 49/100/64
f 46/101/62 49/100/64 53/104/66
f 47/106/63 51/114/69 52/107/68
f 48/103/65 52/107/68 53/104/66
f 47/99/63 46/98/62 50/108/67
f 52/107/68 56/115/73 57/110/70
f 51/109/69 50/108/67 54/111/71
f 50/105/67 53/104/66 57/110/70
f 51/114/69 55/118/72 56/115/73
f 54/113/71 57/110/70 61/116/74
f 55/118/72 59/123/77 60/119/76
f 56/115/73 60/119/76 61/116/74
f 55/112/72 54/111/71 58/120/75
f 12/122/78 13/31/15 61/116/74
f 11/30/14 10/130/83 59/121/77
f 13/31/15 11/30/14 58/117/75
f 59/123/77 10/130/83 12/122/78
f 9/55/11 70/15/84 69/6/79
f 71/51/18 77/129/17 84/42/24
f 86/125/80 76/29/13 83/47/28
f 71/126/18 78/132/25 79/38/21
f 73/19/3 80/35/19 81/127/81
f 74/22/6 81/127/81 82/32/16
f 72/49/27 79/38/21 80/35/19
f 75/24/8 82/32/16 83/47/28
f 85/128/82 87/40/22 84/42/24
f 88/54/32 87/40/22 85/128/82
f 11/30/14 86/125/80 85/128/82
f 1/131/8 2/37/13 79/38/21
f 73/19/3 64/21/5 63/50/30
